# xmcd
#
# Track frame offsets: 
#        150
#        2559
#        22047
#        24153
#        47345
#        49154
#        65565
#        79818
#        99403
#        111239
#        145125
#        175291
#        182966
#        213003
#        222331
#        248846
#        256925
#        282499
#        289318
#        333220
#        336946
#
# Disc length: 4773 seconds
#
# Revision: 0
# Processed by: cddbd v1.5.2PL0 Copyright (c) Steve Scherf et al.
# Submitted via: ExactAudioCopy v0.99pb4
#
DISCID=3212a315
DTITLE=Lucinda Williams - Essence - Live at Irving Plaza Sept. 30, 200
DTITLE=7
DYEAR=2007
DGENRE=Alternative
TTITLE0=Lucinda Chatter
TTITLE1=Lonely Girls
TTITLE2=Lucinda Chatter
TTITLE3=Steal Your Love
TTITLE4=Lucinda Chatter
TTITLE5=I Envy the Wind
TTITLE6=Lucinda Chatter
TTITLE7=Blue
TTITLE8=Lucinda Chatter
TTITLE9=Out of Touch
TTITLE10=Are You Down
TTITLE11=Lucinda Chatter
TTITLE12=Essence
TTITLE13=Lucinda Chatter
TTITLE14=Reason to Cry
TTITLE15=Lucinda Chatter
TTITLE16=Get Right With God
TTITLE17=Lucinda Chatter
TTITLE18=Bus to Baton Rouge
TTITLE19=Lucinda Chatter
TTITLE20=Broken Butterflies
EXTD=
EXTT0=
EXTT1=
EXTT2=
EXTT3=
EXTT4=
EXTT5=
EXTT6=
EXTT7=
EXTT8=
EXTT9=
EXTT10=
EXTT11=
EXTT12=
EXTT13=
EXTT14=
EXTT15=
EXTT16=
EXTT17=
EXTT18=
EXTT19=
EXTT20=
PLAYORDER=
